<svg width="344" height="392" viewBox="0 0 344 392" fill="none" xmlns="http://www.w3.org/2000/svg">
<g clip-path="url(#clip0_10_18)">
<path d="M323.386 110.484L226.397 110.484C224.554 110.484 222.786 109.751 221.482 108.445C220.179 107.14 219.446 105.37 219.446 103.524V32.8223C219.446 30.9772 220.178 29.2077 221.481 27.903C222.784 26.5983 224.552 25.8653 226.394 25.8653L323.39 25.8653C325.232 25.8653 326.999 26.5983 328.302 27.903C329.605 29.2077 330.337 30.9772 330.337 32.8223V103.524C330.337 105.37 329.605 107.14 328.301 108.445C326.998 109.751 325.23 110.484 323.386 110.484Z" fill="white"/>
<path d="M219.156 103.523V32.8219C219.156 30.8997 219.919 29.0561 221.276 27.6969C222.633 26.3377 224.474 25.5741 226.394 25.5741H323.389C325.309 25.5741 327.15 26.3377 328.508 27.6969C329.865 29.0561 330.628 30.8997 330.628 32.8219V103.523C330.628 104.476 330.44 105.418 330.076 106.298C329.712 107.178 329.179 107.977 328.507 108.651C327.834 109.324 327.036 109.858 326.157 110.222C325.279 110.587 324.337 110.774 323.386 110.774H226.397C225.446 110.774 224.505 110.587 223.626 110.222C222.748 109.858 221.949 109.324 221.277 108.651C220.605 107.977 220.071 107.178 219.707 106.298C219.343 105.418 219.156 104.476 219.156 103.523ZM226.394 26.1557C224.629 26.1562 222.936 26.8587 221.688 28.1088C220.44 29.3589 219.739 31.0542 219.739 32.8219V103.523C219.739 105.292 220.44 106.989 221.689 108.239C222.939 109.49 224.633 110.193 226.399 110.193H323.386C325.153 110.193 326.847 109.49 328.096 108.239C329.345 106.989 330.047 105.292 330.047 103.523V32.8219C330.047 31.0539 329.345 29.3583 328.097 28.1082C326.848 26.858 325.155 26.1557 323.389 26.1557H226.394Z" fill="#292A2E"/>
<path d="M219.447 32.8209V38.7119H330.336V32.8209C330.336 30.9758 329.604 29.2063 328.301 27.9016C326.998 26.5969 325.231 25.864 323.389 25.864H226.394C225.482 25.864 224.578 26.0439 223.735 26.3935C222.892 26.7432 222.127 27.2556 221.482 27.9016C220.836 28.5477 220.325 29.3146 219.976 30.1586C219.626 31.0027 219.447 31.9074 219.447 32.8209Z" fill="#292A2E"/>
<path d="M257.317 48.2346H252.085C252.023 48.2346 251.964 48.2101 251.92 48.1664C251.877 48.1228 251.852 48.0636 251.852 48.0019C251.852 47.9402 251.877 47.8811 251.92 47.8374C251.964 47.7938 252.023 47.7693 252.085 47.7693H257.317C257.379 47.7693 257.438 47.7938 257.482 47.8374C257.525 47.8811 257.55 47.9402 257.55 48.0019C257.55 48.0636 257.525 48.1228 257.482 48.1664C257.438 48.2101 257.379 48.2346 257.317 48.2346Z" fill="#292A2E"/>
<path d="M248.311 48.2346H246.331C246.27 48.2346 246.211 48.2101 246.167 48.1664C246.123 48.1228 246.099 48.0636 246.099 48.0019C246.099 47.9402 246.123 47.8811 246.167 47.8374C246.211 47.7938 246.27 47.7693 246.331 47.7693H248.311C248.373 47.7693 248.432 47.7938 248.476 47.8374C248.519 47.8811 248.544 47.9402 248.544 48.0019C248.544 48.0636 248.519 48.1228 248.476 48.1664C248.432 48.2101 248.373 48.2346 248.311 48.2346Z" fill="#367CFF"/>
<path d="M248.311 52.4315H246.331C246.27 52.4315 246.211 52.407 246.167 52.3633C246.123 52.3197 246.099 52.2605 246.099 52.1988C246.099 52.1371 246.123 52.078 246.167 52.0343C246.211 51.9907 246.27 51.9662 246.331 51.9662H248.311C248.373 51.9662 248.432 51.9907 248.476 52.0343C248.519 52.078 248.544 52.1371 248.544 52.1988C248.544 52.2605 248.519 52.3197 248.476 52.3633C248.432 52.407 248.373 52.4315 248.311 52.4315Z" fill="#367CFF"/>
<path d="M248.311 56.6284H246.331C246.27 56.6284 246.211 56.6039 246.167 56.5602C246.123 56.5166 246.099 56.4574 246.099 56.3957C246.099 56.334 246.123 56.2749 246.167 56.2312C246.211 56.1876 246.27 56.1631 246.331 56.1631H248.311C248.373 56.1631 248.432 56.1876 248.476 56.2312C248.519 56.2749 248.544 56.334 248.544 56.3957C248.544 56.4574 248.519 56.5166 248.476 56.5602C248.432 56.6039 248.373 56.6284 248.311 56.6284Z" fill="#367CFF"/>
<path d="M248.311 60.8253H246.331C246.27 60.8253 246.211 60.8008 246.167 60.7571C246.123 60.7135 246.099 60.6543 246.099 60.5926C246.099 60.5309 246.123 60.4718 246.167 60.4281C246.211 60.3845 246.27 60.36 246.331 60.36H248.311C248.373 60.36 248.432 60.3845 248.476 60.4281C248.519 60.4718 248.544 60.5309 248.544 60.5926C248.544 60.6543 248.519 60.7135 248.476 60.7571C248.432 60.8008 248.373 60.8253 248.311 60.8253Z" fill="#367CFF"/>
<path d="M248.311 65.0222H246.331C246.27 65.0222 246.211 64.9977 246.167 64.954C246.123 64.9104 246.099 64.8512 246.099 64.7895C246.099 64.7278 246.123 64.6687 246.167 64.625C246.211 64.5814 246.27 64.5569 246.331 64.5569H248.311C248.373 64.5569 248.432 64.5814 248.476 64.625C248.519 64.6687 248.544 64.7278 248.544 64.7895C248.544 64.8512 248.519 64.9104 248.476 64.954C248.432 64.9977 248.373 65.0222 248.311 65.0222Z" fill="#367CFF"/>
<path d="M248.311 69.2191H246.331C246.27 69.2191 246.211 69.1946 246.167 69.1509C246.123 69.1073 246.099 69.0481 246.099 68.9864C246.099 68.9247 246.123 68.8655 246.167 68.8219C246.211 68.7783 246.27 68.7538 246.331 68.7538H248.311C248.373 68.7538 248.432 68.7783 248.476 68.8219C248.519 68.8655 248.544 68.9247 248.544 68.9864C248.544 69.0481 248.519 69.1073 248.476 69.1509C248.432 69.1946 248.373 69.2191 248.311 69.2191Z" fill="#367CFF"/>
<path d="M248.311 73.416H246.331C246.27 73.416 246.211 73.3915 246.167 73.3478C246.123 73.3042 246.099 73.245 246.099 73.1833C246.099 73.1216 246.123 73.0625 246.167 73.0188C246.211 72.9752 246.27 72.9507 246.331 72.9507H248.311C248.373 72.9507 248.432 72.9752 248.476 73.0188C248.519 73.0625 248.544 73.1216 248.544 73.1833C248.544 73.245 248.519 73.3042 248.476 73.3478C248.432 73.3915 248.373 73.416 248.311 73.416Z" fill="#367CFF"/>
<path d="M248.311 77.6129H246.331C246.27 77.6129 246.211 77.5884 246.167 77.5447C246.123 77.5011 246.099 77.4419 246.099 77.3802C246.099 77.3185 246.123 77.2594 246.167 77.2157C246.211 77.1721 246.27 77.1476 246.331 77.1476H248.311C248.373 77.1476 248.432 77.1721 248.476 77.2157C248.519 77.2594 248.544 77.3185 248.544 77.3802C248.544 77.4419 248.519 77.5011 248.476 77.5447C248.432 77.5884 248.373 77.6129 248.311 77.6129Z" fill="#367CFF"/>
<path d="M248.311 81.8098H246.331C246.27 81.8098 246.211 81.7853 246.167 81.7416C246.123 81.698 246.099 81.6388 246.099 81.5771C246.099 81.5154 246.123 81.4562 246.167 81.4126C246.211 81.369 246.27 81.3445 246.331 81.3445H248.311C248.373 81.3445 248.432 81.369 248.476 81.4126C248.519 81.4562 248.544 81.5154 248.544 81.5771C248.544 81.6388 248.519 81.698 248.476 81.7416C248.432 81.7853 248.373 81.8098 248.311 81.8098Z" fill="#367CFF"/>
<path d="M248.311 86.0067H246.331C246.27 86.0067 246.211 85.9822 246.167 85.9385C246.123 85.8949 246.099 85.8357 246.099 85.774C246.099 85.7123 246.123 85.6532 246.167 85.6095C246.211 85.5659 246.27 85.5414 246.331 85.5414H248.311C248.373 85.5414 248.432 85.5659 248.476 85.6095C248.519 85.6532 248.544 85.7123 248.544 85.774C248.544 85.8357 248.519 85.8949 248.476 85.9385C248.432 85.9822 248.373 86.0067 248.311 86.0067Z" fill="#367CFF"/>
<path d="M248.311 90.2036H246.331C246.27 90.2036 246.211 90.1791 246.167 90.1354C246.123 90.0918 246.099 90.0326 246.099 89.9709C246.099 89.9092 246.123 89.8501 246.167 89.8064C246.211 89.7628 246.27 89.7383 246.331 89.7383H248.311C248.373 89.7383 248.432 89.7628 248.476 89.8064C248.519 89.8501 248.544 89.9092 248.544 89.9709C248.544 90.0326 248.519 90.0918 248.476 90.1354C248.432 90.1791 248.373 90.2036 248.311 90.2036Z" fill="#367CFF"/>
<path d="M248.311 94.4005H246.331C246.27 94.4005 246.211 94.376 246.167 94.3323C246.123 94.2887 246.099 94.2295 246.099 94.1678C246.099 94.1061 246.123 94.0469 246.167 94.0033C246.211 93.9597 246.27 93.9352 246.331 93.9352H248.311C248.373 93.9352 248.432 93.9597 248.476 94.0033C248.519 94.0469 248.544 94.1061 248.544 94.1678C248.544 94.2295 248.519 94.2887 248.476 94.3323C248.432 94.376 248.373 94.4005 248.311 94.4005Z" fill="#367CFF"/>
<path d="M248.311 98.5974H246.331C246.27 98.5974 246.211 98.5729 246.167 98.5292C246.123 98.4856 246.099 98.4264 246.099 98.3647C246.099 98.303 246.123 98.2438 246.167 98.2002C246.211 98.1566 246.27 98.1321 246.331 98.1321H248.311C248.373 98.1321 248.432 98.1566 248.476 98.2002C248.519 98.2438 248.544 98.303 248.544 98.3647C248.544 98.4264 248.519 98.4856 248.476 98.5292C248.432 98.5729 248.373 98.5974 248.311 98.5974Z" fill="#367CFF"/>
<path d="M248.311 102.795H246.331C246.27 102.795 246.211 102.77 246.167 102.727C246.123 102.683 246.099 102.624 246.099 102.562C246.099 102.5 246.123 102.441 246.167 102.398C246.211 102.354 246.27 102.329 246.331 102.329H248.311C248.373 102.329 248.432 102.354 248.476 102.398C248.519 102.441 248.544 102.5 248.544 102.562C248.544 102.624 248.519 102.683 248.476 102.727C248.432 102.77 248.373 102.795 248.311 102.795Z" fill="#367CFF"/>
<path d="M261.499 52.4315H256.731C256.67 52.4315 256.611 52.407 256.567 52.3633C256.523 52.3197 256.499 52.2605 256.499 52.1988C256.499 52.1371 256.523 52.078 256.567 52.0343C256.611 51.9907 256.67 51.9662 256.731 51.9662H261.499C261.561 51.9662 261.62 51.9907 261.664 52.0343C261.707 52.078 261.732 52.1371 261.732 52.1988C261.732 52.2605 261.707 52.3197 261.664 52.3633C261.62 52.407 261.561 52.4315 261.499 52.4315Z" fill="#292A2E"/>
<path d="M257.317 77.6128H252.085C252.023 77.6128 251.964 77.5883 251.92 77.5447C251.877 77.501 251.852 77.4419 251.852 77.3802C251.852 77.3185 251.877 77.2593 251.92 77.2157C251.964 77.172 252.023 77.1475 252.085 77.1475H257.317C257.379 77.1475 257.438 77.172 257.482 77.2157C257.525 77.2593 257.55 77.3185 257.55 77.3802C257.55 77.4419 257.525 77.501 257.482 77.5447C257.438 77.5883 257.379 77.6128 257.317 77.6128Z" fill="#292A2E"/>
<path d="M261.499 81.8097H256.731C256.67 81.8097 256.611 81.7852 256.567 81.7416C256.523 81.6979 256.499 81.6388 256.499 81.5771C256.499 81.5154 256.523 81.4562 256.567 81.4126C256.611 81.3689 256.67 81.3444 256.731 81.3444H261.499C261.561 81.3444 261.62 81.3689 261.664 81.4126C261.707 81.4562 261.732 81.5154 261.732 81.5771C261.732 81.6388 261.707 81.6979 261.664 81.7416C261.62 81.7852 261.561 81.8097 261.499 81.8097Z" fill="#292A2E"/>
<path d="M288.45 56.6284H259.984C259.922 56.6284 259.863 56.6039 259.82 56.5602C259.776 56.5166 259.752 56.4574 259.752 56.3957C259.752 56.334 259.776 56.2749 259.82 56.2312C259.863 56.1876 259.922 56.1631 259.984 56.1631H288.45C288.511 56.1631 288.57 56.1876 288.614 56.2312C288.658 56.2749 288.682 56.334 288.682 56.3957C288.682 56.4574 288.658 56.5166 288.614 56.5602C288.57 56.6039 288.511 56.6284 288.45 56.6284Z" fill="#292A2E"/>
<path d="M313.582 56.6284H293.481C293.419 56.6284 293.36 56.6039 293.316 56.5602C293.273 56.5166 293.248 56.4574 293.248 56.3957C293.248 56.334 293.273 56.2749 293.316 56.2312C293.36 56.1876 293.419 56.1631 293.481 56.1631H313.582C313.644 56.1631 313.703 56.1876 313.746 56.2312C313.79 56.2749 313.814 56.334 313.814 56.3957C313.814 56.4574 313.79 56.5166 313.746 56.5602C313.703 56.6039 313.644 56.6284 313.582 56.6284Z" fill="#0CBC8B"/>
<path d="M324.369 56.6284H318.208C318.146 56.6284 318.087 56.6039 318.044 56.5602C318 56.5166 317.976 56.4574 317.976 56.3957C317.976 56.334 318 56.2749 318.044 56.2312C318.087 56.1876 318.146 56.1631 318.208 56.1631H324.369C324.431 56.1631 324.49 56.1876 324.534 56.2312C324.577 56.2749 324.602 56.334 324.602 56.3957C324.602 56.4574 324.577 56.5166 324.534 56.5602C324.49 56.6039 324.431 56.6284 324.369 56.6284Z" fill="#292A2E"/>
<path d="M302.39 65.0222H259.984C259.922 65.0222 259.863 64.9977 259.82 64.954C259.776 64.9104 259.752 64.8512 259.752 64.7895C259.752 64.7278 259.776 64.6687 259.82 64.625C259.863 64.5814 259.922 64.5569 259.984 64.5569H302.39C302.451 64.5569 302.51 64.5814 302.554 64.625C302.597 64.6687 302.622 64.7278 302.622 64.7895C302.622 64.8512 302.597 64.9104 302.554 64.954C302.51 64.9977 302.451 65.0222 302.39 65.0222Z" fill="#292A2E"/>
<path d="M313.582 65.0222H307.42C307.359 65.0222 307.3 64.9977 307.256 64.954C307.213 64.9104 307.188 64.8512 307.188 64.7895C307.188 64.7278 307.213 64.6687 307.256 64.625C307.3 64.5814 307.359 64.5569 307.42 64.5569H313.582C313.643 64.5569 313.703 64.5814 313.746 64.625C313.79 64.6687 313.814 64.7278 313.814 64.7895C313.814 64.8512 313.79 64.9104 313.746 64.954C313.703 64.9977 313.643 65.0222 313.582 65.0222Z" fill="#367CFF"/>
<path d="M265.217 60.8252H259.984C259.922 60.8252 259.863 60.8007 259.82 60.7571C259.776 60.7134 259.752 60.6543 259.752 60.5926C259.752 60.5309 259.776 60.4717 259.82 60.4281C259.863 60.3844 259.922 60.3599 259.984 60.3599H265.217C265.278 60.3599 265.337 60.3844 265.381 60.4281C265.424 60.4717 265.449 60.5309 265.449 60.5926C265.449 60.6543 265.424 60.7134 265.381 60.7571C265.337 60.8007 265.278 60.8252 265.217 60.8252Z" fill="#0CBC8B"/>
<path d="M299.642 60.8252H270.247C270.186 60.8252 270.127 60.8007 270.083 60.7571C270.04 60.7134 270.015 60.6543 270.015 60.5926C270.015 60.5309 270.04 60.4717 270.083 60.4281C270.127 60.3844 270.186 60.3599 270.247 60.3599H299.642C299.704 60.3599 299.763 60.3844 299.806 60.4281C299.85 60.4717 299.874 60.5309 299.874 60.5926C299.874 60.6543 299.85 60.7134 299.806 60.7571C299.763 60.8007 299.704 60.8252 299.642 60.8252Z" fill="#367CFF"/>
<path d="M324.41 60.8252H305.237C305.175 60.8252 305.116 60.8007 305.072 60.7571C305.029 60.7134 305.004 60.6543 305.004 60.5926C305.004 60.5309 305.029 60.4717 305.072 60.4281C305.116 60.3844 305.175 60.3599 305.237 60.3599H324.409C324.471 60.3599 324.53 60.3844 324.573 60.4281C324.617 60.4717 324.641 60.5309 324.641 60.5926C324.641 60.6543 324.617 60.7134 324.573 60.7571C324.53 60.8007 324.471 60.8252 324.409 60.8252H324.41Z" fill="#292A2E"/>
<path d="M288.45 69.219H259.984C259.922 69.219 259.863 69.1945 259.82 69.1509C259.776 69.1072 259.752 69.0481 259.752 68.9864C259.752 68.9247 259.776 68.8655 259.82 68.8219C259.863 68.7782 259.922 68.7537 259.984 68.7537H288.45C288.511 68.7537 288.57 68.7782 288.614 68.8219C288.658 68.8655 288.682 68.9247 288.682 68.9864C288.682 69.0481 288.658 69.1072 288.614 69.1509C288.57 69.1945 288.511 69.219 288.45 69.219Z" fill="#292A2E"/>
<path d="M304.289 69.219H293.481C293.419 69.219 293.36 69.1945 293.316 69.1509C293.273 69.1072 293.248 69.0481 293.248 68.9864C293.248 68.9247 293.273 68.8655 293.316 68.8219C293.36 68.7782 293.419 68.7537 293.481 68.7537H304.289C304.35 68.7537 304.409 68.7782 304.453 68.8219C304.497 68.8655 304.521 68.9247 304.521 68.9864C304.521 69.0481 304.497 69.1072 304.453 69.1509C304.409 69.1945 304.35 69.219 304.289 69.219Z" fill="#0CBC8B"/>
<path d="M324.369 69.219H308.915C308.853 69.219 308.794 69.1945 308.751 69.1509C308.707 69.1072 308.682 69.0481 308.682 68.9864C308.682 68.9247 308.707 68.8655 308.751 68.8219C308.794 68.7782 308.853 68.7537 308.915 68.7537H324.369C324.431 68.7537 324.49 68.7782 324.534 68.8219C324.577 68.8655 324.602 68.9247 324.602 68.9864C324.602 69.0481 324.577 69.1072 324.534 69.1509C324.49 69.1945 324.431 69.219 324.369 69.219Z" fill="#292A2E"/>
<path d="M265.217 73.4159H259.984C259.922 73.4159 259.863 73.3914 259.82 73.3478C259.776 73.3041 259.752 73.245 259.752 73.1833C259.752 73.1216 259.776 73.0624 259.82 73.0188C259.863 72.9751 259.922 72.9506 259.984 72.9506H265.217C265.278 72.9506 265.337 72.9751 265.381 73.0188C265.424 73.0624 265.449 73.1216 265.449 73.1833C265.449 73.245 265.424 73.3041 265.381 73.3478C265.337 73.3914 265.278 73.4159 265.217 73.4159Z" fill="#367CFF"/>
<path d="M299.642 73.4159H270.247C270.186 73.4159 270.127 73.3914 270.083 73.3478C270.04 73.3041 270.015 73.245 270.015 73.1833C270.015 73.1216 270.04 73.0624 270.083 73.0188C270.127 72.9751 270.186 72.9506 270.247 72.9506H299.642C299.704 72.9506 299.763 72.9751 299.806 73.0188C299.85 73.0624 299.874 73.1216 299.874 73.1833C299.874 73.245 299.85 73.3041 299.806 73.3478C299.763 73.3914 299.704 73.4159 299.642 73.4159Z" fill="#0CBC8B"/>
<path d="M287.52 90.2035H259.055C258.993 90.2035 258.934 90.179 258.89 90.1354C258.847 90.0917 258.822 90.0326 258.822 89.9709C258.822 89.9092 258.847 89.85 258.89 89.8064C258.934 89.7627 258.993 89.7382 259.055 89.7382H287.52C287.582 89.7382 287.641 89.7627 287.685 89.8064C287.728 89.85 287.753 89.9092 287.753 89.9709C287.753 90.0326 287.728 90.0917 287.685 90.1354C287.641 90.179 287.582 90.2035 287.52 90.2035Z" fill="#292A2E"/>
<path d="M312.653 90.2035H292.551C292.49 90.2035 292.431 90.179 292.387 90.1354C292.343 90.0917 292.319 90.0326 292.319 89.9709C292.319 89.9092 292.343 89.85 292.387 89.8064C292.431 89.7627 292.49 89.7382 292.551 89.7382H312.653C312.714 89.7382 312.773 89.7627 312.817 89.8064C312.86 89.85 312.885 89.9092 312.885 89.9709C312.885 90.0326 312.86 90.0917 312.817 90.1354C312.773 90.179 312.714 90.2035 312.653 90.2035Z" fill="#367CFF"/>
<path d="M273.581 86.0066H259.055C258.993 86.0066 258.934 85.9821 258.89 85.9385C258.847 85.8948 258.822 85.8357 258.822 85.774C258.822 85.7123 258.847 85.6531 258.89 85.6095C258.934 85.5658 258.993 85.5413 259.055 85.5413H273.581C273.642 85.5413 273.701 85.5658 273.745 85.6095C273.788 85.6531 273.813 85.7123 273.813 85.774C273.813 85.8357 273.788 85.8948 273.745 85.9385C273.701 85.9821 273.642 86.0066 273.581 86.0066Z" fill="#0CBC8B"/>
<path d="M298.713 86.0066H278.611C278.55 86.0066 278.491 85.9821 278.447 85.9385C278.404 85.8948 278.379 85.8357 278.379 85.774C278.379 85.7123 278.404 85.6531 278.447 85.6095C278.491 85.5658 278.55 85.5413 278.611 85.5413H298.713C298.774 85.5413 298.833 85.5658 298.877 85.6095C298.921 85.6531 298.945 85.7123 298.945 85.774C298.945 85.8357 298.921 85.8948 298.877 85.9385C298.833 85.9821 298.774 86.0066 298.713 86.0066Z" fill="#367CFF"/>
<path d="M323.481 86.0066H304.307C304.246 86.0066 304.187 85.9821 304.143 85.9385C304.099 85.8948 304.075 85.8357 304.075 85.774C304.075 85.7123 304.099 85.6531 304.143 85.6095C304.187 85.5658 304.246 85.5413 304.307 85.5413H323.48C323.541 85.5413 323.6 85.5658 323.644 85.6095C323.688 85.6531 323.712 85.7123 323.712 85.774C323.712 85.8357 323.688 85.8948 323.644 85.9385C323.6 85.9821 323.541 86.0066 323.48 86.0066H323.481Z" fill="#292A2E"/>
<path d="M301.46 98.5978H259.055C258.993 98.5978 258.934 98.5733 258.89 98.5297C258.847 98.486 258.822 98.4269 258.822 98.3652C258.822 98.3035 258.847 98.2443 258.89 98.2007C258.934 98.157 258.993 98.1325 259.055 98.1325H301.46C301.522 98.1325 301.581 98.157 301.625 98.2007C301.668 98.2443 301.693 98.3035 301.693 98.3652C301.693 98.4269 301.668 98.486 301.625 98.5297C301.581 98.5733 301.522 98.5978 301.46 98.5978Z" fill="#367CFF"/>
<path d="M312.653 98.5978H306.491C306.43 98.5978 306.37 98.5733 306.327 98.5297C306.283 98.486 306.259 98.4269 306.259 98.3652C306.259 98.3035 306.283 98.2443 306.327 98.2007C306.37 98.157 306.43 98.1325 306.491 98.1325H312.653C312.714 98.1325 312.773 98.157 312.817 98.2007C312.86 98.2443 312.885 98.3035 312.885 98.3652C312.885 98.4269 312.86 98.486 312.817 98.5297C312.773 98.5733 312.714 98.5978 312.653 98.5978Z" fill="#292A2E"/>
<path d="M264.287 94.4009H259.055C258.993 94.4009 258.934 94.3764 258.89 94.3328C258.847 94.2891 258.822 94.23 258.822 94.1683C258.822 94.1066 258.847 94.0474 258.89 94.0038C258.934 93.9601 258.993 93.9356 259.055 93.9356H264.287C264.349 93.9356 264.408 93.9601 264.452 94.0038C264.495 94.0474 264.52 94.1066 264.52 94.1683C264.52 94.23 264.495 94.2891 264.452 94.3328C264.408 94.3764 264.349 94.4009 264.287 94.4009Z" fill="#367CFF"/>
<path d="M298.713 94.4009H269.318C269.257 94.4009 269.197 94.3764 269.154 94.3328C269.11 94.2891 269.086 94.23 269.086 94.1683C269.086 94.1066 269.11 94.0474 269.154 94.0038C269.197 93.9601 269.257 93.9356 269.318 93.9356H298.713C298.774 93.9356 298.833 93.9601 298.877 94.0038C298.921 94.0474 298.945 94.1066 298.945 94.1683C298.945 94.23 298.921 94.2891 298.877 94.3328C298.833 94.3764 298.774 94.4009 298.713 94.4009Z" fill="#292A2E"/>
<path d="M323.481 94.4009H304.307C304.246 94.4009 304.187 94.3764 304.143 94.3328C304.099 94.2891 304.075 94.23 304.075 94.1683C304.075 94.1066 304.099 94.0474 304.143 94.0038C304.187 93.9601 304.246 93.9356 304.307 93.9356H323.48C323.541 93.9356 323.6 93.9601 323.644 94.0038C323.688 94.0474 323.712 94.1066 323.712 94.1683C323.712 94.23 323.688 94.2891 323.644 94.3328C323.6 94.3764 323.541 94.4009 323.48 94.4009H323.481Z" fill="#0CBC8B"/>
<path d="M287.52 102.795H259.055C258.993 102.795 258.934 102.77 258.89 102.727C258.847 102.683 258.822 102.624 258.822 102.562C258.822 102.5 258.847 102.441 258.89 102.398C258.934 102.354 258.993 102.329 259.055 102.329H287.52C287.582 102.329 287.641 102.354 287.685 102.398C287.728 102.441 287.753 102.5 287.753 102.562C287.753 102.624 287.728 102.683 287.685 102.727C287.641 102.77 287.582 102.795 287.52 102.795Z" fill="#0CBC8B"/>
<path d="M303.359 102.795H292.551C292.49 102.795 292.431 102.77 292.387 102.727C292.343 102.683 292.319 102.624 292.319 102.562C292.319 102.5 292.343 102.441 292.387 102.398C292.431 102.354 292.49 102.329 292.551 102.329H303.359C303.421 102.329 303.48 102.354 303.524 102.398C303.567 102.441 303.592 102.5 303.592 102.562C303.592 102.624 303.567 102.683 303.524 102.727C303.48 102.77 303.421 102.795 303.359 102.795Z" fill="#292A2E"/>
<path d="M323.44 102.795H307.986C307.924 102.795 307.865 102.77 307.821 102.727C307.778 102.683 307.753 102.624 307.753 102.562C307.753 102.5 307.778 102.441 307.821 102.398C307.865 102.354 307.924 102.329 307.986 102.329H323.44C323.502 102.329 323.561 102.354 323.604 102.398C323.648 102.441 323.673 102.5 323.673 102.562C323.673 102.624 323.648 102.683 323.604 102.727C323.561 102.77 323.502 102.795 323.44 102.795Z" fill="#367CFF"/>
<path d="M244.125 107.286C244.063 107.286 244.004 107.261 243.96 107.217C243.917 107.174 243.892 107.115 243.892 107.053V40.9081C243.892 40.8464 243.917 40.7872 243.96 40.7436C244.004 40.7 244.063 40.6755 244.125 40.6755C244.186 40.6755 244.245 40.7 244.289 40.7436C244.333 40.7872 244.357 40.8464 244.357 40.9081V107.053C244.357 107.115 244.333 107.174 244.289 107.217C244.245 107.261 244.186 107.286 244.125 107.286Z" fill="#292A2E"/>
<path d="M321.936 36.4865C323.994 36.4865 325.663 34.8154 325.663 32.754C325.663 30.6925 323.994 29.0214 321.936 29.0214C319.877 29.0214 318.208 30.6925 318.208 32.754C318.208 34.8154 319.877 36.4865 321.936 36.4865Z" fill="white"/>
<path d="M233.498 43.8143H223.437C223.376 43.8143 223.317 43.7898 223.273 43.7462C223.23 43.7026 223.205 43.6434 223.205 43.5817C223.205 43.52 223.23 43.4608 223.273 43.4172C223.317 43.3736 223.376 43.3491 223.437 43.3491H233.498C233.56 43.3491 233.619 43.3736 233.663 43.4172C233.706 43.4608 233.731 43.52 233.731 43.5817C233.731 43.6434 233.706 43.7026 233.663 43.7462C233.619 43.7898 233.56 43.8143 233.498 43.8143Z" fill="#292A2E"/>
<path d="M230.467 48.403H223.437C223.376 48.403 223.317 48.3785 223.273 48.3349C223.23 48.2913 223.205 48.2321 223.205 48.1704C223.205 48.1087 223.23 48.0495 223.273 48.0059C223.317 47.9623 223.376 47.9377 223.437 47.9377H230.467C230.529 47.9377 230.588 47.9623 230.632 48.0059C230.675 48.0495 230.7 48.1087 230.7 48.1704C230.7 48.2321 230.675 48.2913 230.632 48.3349C230.588 48.3785 230.529 48.403 230.467 48.403Z" fill="#292A2E"/>
<path d="M236.65 52.9917H223.437C223.376 52.9917 223.317 52.9671 223.273 52.9235C223.23 52.8799 223.205 52.8207 223.205 52.759C223.205 52.6973 223.23 52.6381 223.273 52.5945C223.317 52.5509 223.376 52.5264 223.437 52.5264H236.65C236.711 52.5264 236.77 52.5509 236.814 52.5945C236.857 52.6381 236.882 52.6973 236.882 52.759C236.882 52.8207 236.857 52.8799 236.814 52.9235C236.77 52.9671 236.711 52.9917 236.65 52.9917Z" fill="#292A2E"/>
<path d="M239.115 57.5803H228.084C228.022 57.5803 227.963 57.5558 227.92 57.5122C227.876 57.4686 227.852 57.4094 227.852 57.3477C227.852 57.286 227.876 57.2268 227.92 57.1832C227.963 57.1396 228.022 57.1151 228.084 57.1151H239.115C239.177 57.1151 239.236 57.1396 239.279 57.1832C239.323 57.2268 239.347 57.286 239.347 57.3477C239.347 57.4094 239.323 57.4686 239.279 57.5122C239.236 57.5558 239.177 57.5803 239.115 57.5803Z" fill="#292A2E"/>
<path d="M233.781 62.1695H228.084C228.022 62.1695 227.963 62.145 227.92 62.1014C227.876 62.0577 227.852 61.9986 227.852 61.9369C227.852 61.8752 227.876 61.816 227.92 61.7724C227.963 61.7287 228.022 61.7042 228.084 61.7042H233.781C233.842 61.7042 233.901 61.7287 233.945 61.7724C233.989 61.816 234.013 61.8752 234.013 61.9369C234.013 61.9986 233.989 62.0577 233.945 62.1014C233.901 62.145 233.842 62.1695 233.781 62.1695Z" fill="#292A2E"/>
<path d="M238.145 66.7581H228.084C228.022 66.7581 227.963 66.7336 227.92 66.69C227.876 66.6464 227.852 66.5872 227.852 66.5255C227.852 66.4638 227.876 66.4046 227.92 66.361C227.963 66.3174 228.022 66.2928 228.084 66.2928H238.145C238.207 66.2928 238.266 66.3174 238.309 66.361C238.353 66.4046 238.377 66.4638 238.377 66.5255C238.377 66.5872 238.353 66.6464 238.309 66.69C238.266 66.7336 238.207 66.7581 238.145 66.7581Z" fill="#292A2E"/>
<path d="M231.195 71.3468H223.437C223.376 71.3468 223.317 71.3223 223.273 71.2787C223.23 71.235 223.205 71.1759 223.205 71.1142C223.205 71.0525 223.23 70.9933 223.273 70.9497C223.317 70.906 223.376 70.8815 223.437 70.8815H231.195C231.257 70.8815 231.316 70.906 231.359 70.9497C231.403 70.9933 231.427 71.0525 231.427 71.1142C231.427 71.1759 231.403 71.235 231.359 71.2787C231.316 71.3223 231.257 71.3468 231.195 71.3468Z" fill="#292A2E"/>
<path d="M228.528 75.935H223.437C223.376 75.935 223.317 75.9105 223.273 75.8669C223.23 75.8232 223.205 75.7641 223.205 75.7024C223.205 75.6407 223.23 75.5815 223.273 75.5379C223.317 75.4942 223.376 75.4697 223.437 75.4697H228.528C228.59 75.4697 228.649 75.4942 228.693 75.5379C228.736 75.5815 228.761 75.6407 228.761 75.7024C228.761 75.7641 228.736 75.8232 228.693 75.8669C228.649 75.9105 228.59 75.935 228.528 75.935Z" fill="#292A2E"/>
<path d="M247.995 42.8298V42.9135L250.899 43.993C250.941 44.0099 250.976 44.0389 251.001 44.0763C251.026 44.1136 251.039 44.1575 251.039 44.2024V44.2815C251.04 44.3164 251.031 44.351 251.015 44.3819C250.999 44.4128 250.975 44.4391 250.946 44.4583C250.916 44.4791 250.882 44.4921 250.846 44.4962C250.811 44.5002 250.774 44.4952 250.741 44.4816L247.461 43.1974C247.42 43.181 247.385 43.1528 247.36 43.1163C247.335 43.0798 247.322 43.0368 247.322 42.9926V42.7553C247.321 42.7111 247.334 42.6677 247.359 42.6311C247.384 42.5945 247.42 42.5664 247.461 42.5506L250.741 41.2618C250.768 41.2526 250.796 41.2479 250.825 41.2478C250.868 41.2487 250.91 41.2616 250.946 41.285C250.975 41.3052 250.999 41.3323 251.015 41.364C251.032 41.3957 251.04 41.4309 251.039 41.4665V41.5456C251.04 41.59 251.027 41.6336 251.002 41.6703C250.977 41.707 250.941 41.735 250.899 41.7503L247.995 42.8298Z" fill="#367CFF"/>
<path d="M253.752 40.3126L252.014 45.6401C252 45.6846 251.972 45.7234 251.935 45.751C251.897 45.7786 251.852 45.7935 251.805 45.7937C251.771 45.7942 251.738 45.7864 251.708 45.771C251.678 45.7556 251.652 45.733 251.633 45.7053C251.612 45.6778 251.598 45.6458 251.592 45.6119C251.585 45.578 251.587 45.543 251.596 45.5098L253.334 40.1869C253.349 40.1416 253.377 40.1021 253.416 40.0737C253.454 40.0454 253.5 40.0297 253.548 40.0287C253.581 40.0286 253.614 40.0366 253.644 40.052C253.674 40.0674 253.7 40.0897 253.72 40.1172C253.74 40.1447 253.754 40.1768 253.76 40.2109C253.765 40.2449 253.763 40.2798 253.752 40.3126Z" fill="#367CFF"/>
<path d="M258.019 42.7553V42.9926C258.02 43.0364 258.008 43.0793 257.984 43.1158C257.96 43.1523 257.925 43.1807 257.885 43.1974L254.6 44.4816C254.567 44.4951 254.532 44.5 254.497 44.496C254.462 44.4919 254.428 44.4789 254.4 44.4583C254.37 44.4394 254.345 44.4133 254.328 44.3824C254.311 44.3515 254.302 44.3168 254.302 44.2815V44.2024C254.302 44.1569 254.315 44.1124 254.341 44.0749C254.367 44.0375 254.404 44.0089 254.446 43.993L257.35 42.9135V42.8298L254.446 41.7503C254.404 41.7361 254.366 41.7086 254.341 41.6717C254.315 41.6349 254.301 41.5907 254.302 41.5456V41.4665C254.302 41.4306 254.311 41.3952 254.328 41.3636C254.345 41.3319 254.37 41.305 254.4 41.285C254.436 41.2617 254.478 41.2488 254.521 41.2478C254.548 41.2475 254.574 41.2522 254.6 41.2618L257.885 42.5506C257.925 42.5668 257.96 42.5951 257.984 42.6317C258.008 42.6683 258.021 42.7115 258.019 42.7553Z" fill="#367CFF"/>
<path d="M192.324 0H28.6581V163.886H192.324V0Z" fill="#F4F4F4"/>
<path d="M28.6581 0H26.7822V163.886H28.6581V0Z" fill="#F4F4F4"/>
<path opacity="0.05" d="M28.6581 0H26.7822V163.886H28.6581V0Z" fill="#292A2E"/>
<path opacity="0.05" d="M68.3067 112.931V70.0529H103.383V94.9644H157.716V139.072H180.808V163.886H157.716H153.267H36.5312V112.931H68.3067Z" fill="#292A2E"/>
<path opacity="0.34" d="M98.8806 74.7085H73.3376V79.3642H98.8806V74.7085Z" fill="#FFFFFA"/>
<path opacity="0.34" d="M98.8806 84.3558H73.3376V89.0114H98.8806V84.3558Z" fill="#FFFFFA"/>
<path opacity="0.34" d="M98.8806 94.0031H73.3376V98.6587H98.8806V94.0031Z" fill="#FFFFFA"/>
<path opacity="0.34" d="M45.7683 117.45H41.0603V122.105H45.7683V117.45Z" fill="#FFFFFA"/>
<path opacity="0.34" d="M45.7683 127.097H41.0603V131.753H45.7683V127.097Z" fill="#FFFFFA"/>
<path opacity="0.34" d="M45.7683 136.745H41.0603V141.401H45.7683V136.745Z" fill="#FFFFFA"/>
<path opacity="0.34" d="M54.4779 117.45H49.7699V122.105H54.4779V117.45Z" fill="#FFFFFA"/>
<path opacity="0.34" d="M54.4779 127.097H49.7699V131.753H54.4779V127.097Z" fill="#FFFFFA"/>
<path opacity="0.34" d="M54.4779 136.745H49.7699V141.401H54.4779V136.745Z" fill="#FFFFFA"/>
<path opacity="0.34" d="M62.9523 117.45H58.2444V122.105H62.9523V117.45Z" fill="#FFFFFA"/>
<path opacity="0.34" d="M62.9523 127.097H58.2444V131.753H62.9523V127.097Z" fill="#FFFFFA"/>
<path opacity="0.34" d="M62.9523 136.745H58.2444V141.401H62.9523V136.745Z" fill="#FFFFFA"/>
<path d="M28.6581 81.0238H61.5905V0H64.3139V81.0238H153.267V0H155.991V81.0238H192.324V83.7509H155.991V163.886H153.267V83.7509H64.3139V163.886H61.5905V83.7509H28.6581V81.0238Z" fill="white"/>
<path d="M198.844 163.688H22.1384V169.139H198.844V163.688Z" fill="#F4F4F4"/>
<path opacity="0.1" d="M198.844 163.688H22.1384V169.139H198.844V163.688Z" fill="#292A2E"/>
<path opacity="0.1" d="M22.1384 163.688H19.5869V169.139H22.1384V163.688Z" fill="#292A2E"/>
<path opacity="0.1" d="M22.1384 163.688H19.5869V169.139H22.1384V163.688Z" fill="#292A2E"/>
<path d="M26.7822 6.97748L192.324 6.97748V2.92529L26.7822 2.92529V6.97748Z" fill="white"/>
<path d="M26.7822 14.5468L192.324 14.5468V10.4946L26.7822 10.4946V14.5468Z" fill="white"/>
<path d="M26.7822 22.1156L192.324 22.1156V18.0634L26.7822 18.0634V22.1156Z" fill="white"/>
<path d="M26.7822 29.6844L192.324 29.6844V25.6323L26.7822 25.6323V29.6844Z" fill="white"/>
<path d="M26.7822 37.2529L192.324 37.2529V33.2007L26.7822 33.2007V37.2529Z" fill="white"/>
<path d="M44.3645 41.8234H46.8453L46.8453 2.67029e-05H44.3645L44.3645 41.8234Z" fill="white"/>
<path d="M45.3947 47.8297C47.2771 47.8297 48.803 46.3017 48.803 44.4169C48.803 42.532 47.2771 41.004 45.3947 41.004C43.5124 41.004 41.9865 42.532 41.9865 44.4169C41.9865 46.3017 43.5124 47.8297 45.3947 47.8297Z" fill="white"/>
<path d="M28.2273 391.687L27.3147 391.511L41.578 249.584L42.4906 249.76L28.2273 391.687Z" fill="#494949"/>
<path d="M81.3372 391.687L80.4246 391.511L94.6874 249.584L95.6 249.76L81.3372 391.687Z" fill="#494949"/>
<path d="M198.733 391.687L199.646 391.511L185.382 249.584L184.47 249.76L198.733 391.687Z" fill="#494949"/>
<path d="M145.623 391.687L146.536 391.511L132.273 249.584L131.36 249.76L145.623 391.687Z" fill="#494949"/>
<path d="M126.708 187.121L125.787 187.244L134.119 249.734L135.041 249.611L126.708 187.121Z" fill="#494949"/>
<path d="M31.0693 187.12L30.1482 187.244L38.4805 249.734L39.4016 249.611L31.0693 187.12Z" fill="#494949"/>
<path d="M134.96 245.096H41.4144C38.8905 245.096 36.8445 247.144 36.8445 249.672V249.672C36.8445 252.199 38.8905 254.248 41.4144 254.248H134.96C137.484 254.248 139.53 252.199 139.53 249.672V249.672C139.53 247.144 137.484 245.096 134.96 245.096Z" fill="#292A2E"/>
<path opacity="0.8" d="M134.96 245.096H41.4144C38.8905 245.096 36.8445 247.144 36.8445 249.672V249.672C36.8445 252.199 38.8905 254.248 41.4144 254.248H134.96C137.484 254.248 139.53 252.199 139.53 249.672V249.672C139.53 247.144 137.484 245.096 134.96 245.096Z" fill="white"/>
<path d="M134.96 254.713H41.4149C40.7537 254.713 40.099 254.583 39.4882 254.329C38.8774 254.076 38.3224 253.705 37.8549 253.236C37.3873 252.768 37.0165 252.213 36.7635 251.601C36.5105 250.989 36.3802 250.334 36.3802 249.672C36.3802 249.01 36.5105 248.354 36.7635 247.742C37.0165 247.131 37.3873 246.575 37.8549 246.107C38.3224 245.639 38.8774 245.267 39.4882 245.014C40.099 244.761 40.7537 244.63 41.4149 244.63H134.96C135.621 244.63 136.276 244.761 136.887 245.014C137.498 245.267 138.053 245.639 138.52 246.107C138.988 246.575 139.359 247.131 139.612 247.742C139.865 248.354 139.995 249.01 139.995 249.672C139.995 250.334 139.865 250.989 139.612 251.601C139.359 252.213 138.988 252.768 138.52 253.236C138.053 253.705 137.498 254.076 136.887 254.329C136.276 254.583 135.621 254.713 134.96 254.713ZM41.4149 245.561C40.8757 245.561 40.3419 245.667 39.8438 245.874C39.3458 246.08 38.8932 246.383 38.512 246.765C38.1308 247.147 37.8284 247.6 37.6221 248.099C37.4158 248.597 37.3096 249.132 37.3096 249.672C37.3096 250.212 37.4158 250.746 37.6221 251.245C37.8284 251.744 38.1308 252.197 38.512 252.578C38.8932 252.96 39.3458 253.263 39.8438 253.47C40.3419 253.676 40.8757 253.783 41.4149 253.783H134.96C135.499 253.783 136.033 253.676 136.531 253.47C137.029 253.263 137.482 252.96 137.863 252.578C138.244 252.197 138.547 251.744 138.753 251.245C138.959 250.746 139.065 250.212 139.065 249.672C139.065 249.132 138.959 248.597 138.753 248.099C138.547 247.6 138.244 247.147 137.863 246.765C137.482 246.383 137.029 246.08 136.531 245.874C136.033 245.667 135.499 245.561 134.96 245.561H41.4149Z" fill="#292A2E"/>
<path d="M186.303 245.096H92.7576C90.2337 245.096 88.1876 247.144 88.1876 249.672V249.672C88.1876 252.199 90.2337 254.248 92.7576 254.248H186.303C188.827 254.248 190.873 252.199 190.873 249.672V249.672C190.873 247.144 188.827 245.096 186.303 245.096Z" fill="white"/>
<path d="M186.303 254.713H92.7576C92.0965 254.713 91.4418 254.583 90.831 254.329C90.2201 254.076 89.6651 253.705 89.1976 253.236C88.7301 252.768 88.3593 252.213 88.1063 251.601C87.8532 250.989 87.723 250.334 87.723 249.672C87.723 249.01 87.8532 248.354 88.1063 247.742C88.3593 247.131 88.7301 246.575 89.1976 246.107C89.6651 245.639 90.2201 245.267 90.831 245.014C91.4418 244.761 92.0965 244.63 92.7576 244.63H186.303C186.965 244.63 187.619 244.761 188.23 245.014C188.841 245.267 189.396 245.639 189.863 246.107C190.331 246.575 190.702 247.131 190.955 247.742C191.208 248.354 191.338 249.01 191.338 249.672C191.338 250.334 191.208 250.989 190.955 251.601C190.702 252.213 190.331 252.768 189.863 253.236C189.396 253.705 188.841 254.076 188.23 254.329C187.619 254.583 186.965 254.713 186.303 254.713ZM92.7576 245.561C92.2185 245.561 91.6847 245.667 91.1866 245.874C90.6885 246.08 90.236 246.383 89.8548 246.765C89.4735 247.147 89.1711 247.6 88.9648 248.099C88.7585 248.597 88.6523 249.132 88.6523 249.672C88.6523 250.212 88.7585 250.746 88.9648 251.245C89.1711 251.744 89.4735 252.197 89.8548 252.578C90.236 252.96 90.6885 253.263 91.1866 253.47C91.6847 253.676 92.2185 253.783 92.7576 253.783H186.303C186.843 253.783 187.376 253.676 187.874 253.47C188.373 253.263 188.825 252.96 189.206 252.578C189.587 252.197 189.89 251.744 190.096 251.245C190.303 250.746 190.409 250.212 190.409 249.672C190.409 249.132 190.303 248.597 190.096 248.099C189.89 247.6 189.587 247.147 189.206 246.765C188.825 246.383 188.373 246.08 187.874 245.874C187.376 245.667 186.843 245.561 186.303 245.561H92.7576Z" fill="#292A2E"/>
<path d="M121.583 187.182H30.8596C29.3762 187.182 27.9436 186.641 26.8291 185.661C25.7146 184.681 24.9943 183.328 24.8027 181.855L18.8016 135.708C18.6894 134.846 18.7624 133.969 19.0155 133.137C19.2686 132.304 19.6961 131.536 20.2695 130.882C20.8428 130.229 21.5488 129.705 22.3403 129.346C23.1318 128.988 23.9906 128.802 24.8594 128.802H115.582C117.066 128.802 118.498 129.343 119.613 130.323C120.727 131.303 121.448 132.656 121.639 134.129L127.64 180.276C127.752 181.138 127.679 182.015 127.426 182.847C127.173 183.679 126.746 184.448 126.173 185.101C125.599 185.755 124.894 186.279 124.102 186.637C123.311 186.996 122.452 187.182 121.583 187.182Z" fill="#292A2E"/>
<path opacity="0.8" d="M121.583 187.182H30.8596C29.3762 187.182 27.9436 186.641 26.8291 185.661C25.7146 184.681 24.9943 183.328 24.8027 181.855L18.8016 135.708C18.6894 134.846 18.7624 133.969 19.0155 133.137C19.2686 132.304 19.6961 131.536 20.2695 130.882C20.8428 130.229 21.5488 129.705 22.3403 129.346C23.1318 128.988 23.9906 128.802 24.8594 128.802H115.582C117.066 128.802 118.498 129.343 119.613 130.323C120.727 131.303 121.448 132.656 121.639 134.129L127.64 180.276C127.752 181.138 127.679 182.015 127.426 182.847C127.173 183.679 126.746 184.448 126.173 185.101C125.599 185.755 124.894 186.279 124.102 186.637C123.311 186.996 122.452 187.182 121.583 187.182Z" fill="white"/>
<path d="M121.583 187.647H30.8596C29.2644 187.643 27.7246 187.06 26.526 186.006C25.3274 184.952 24.5513 183.499 24.3418 181.915L18.3411 135.768C18.2203 134.84 18.2987 133.896 18.571 133.001C18.8432 132.105 19.3032 131.278 19.9202 130.575C20.5371 129.871 21.2968 129.308 22.1486 128.922C23.0003 128.536 23.9245 128.336 24.8594 128.337H115.582C117.178 128.34 118.717 128.923 119.916 129.977C121.114 131.031 121.89 132.485 122.1 134.069L128.101 180.216C128.222 181.144 128.143 182.087 127.871 182.983C127.599 183.878 127.139 184.705 126.522 185.409C125.905 186.112 125.145 186.675 124.294 187.061C123.442 187.447 122.518 187.647 121.583 187.647ZM24.8594 129.267C24.0568 129.267 23.2634 129.439 22.5323 129.77C21.8011 130.102 21.1489 130.585 20.6193 131.189C20.0897 131.793 19.6948 132.503 19.461 133.272C19.2272 134.041 19.1599 134.851 19.2635 135.648L25.2646 181.795C25.4444 183.155 26.1106 184.403 27.1397 185.308C28.1688 186.213 29.4909 186.713 30.8605 186.716H121.583C122.386 186.716 123.179 186.545 123.91 186.213C124.641 185.881 125.293 185.398 125.823 184.794C126.352 184.19 126.747 183.48 126.981 182.711C127.214 181.943 127.282 181.133 127.178 180.336L121.178 134.189C120.998 132.829 120.332 131.581 119.303 130.676C118.274 129.771 116.952 129.271 115.582 129.268L24.8594 129.267Z" fill="#292A2E"/>
<path d="M126.713 187.182H35.9895C34.5062 187.182 33.0737 186.641 31.9592 185.661C30.8448 184.681 30.1246 183.328 29.9331 181.855L23.9301 135.708C23.818 134.846 23.8909 133.969 24.144 133.137C24.397 132.305 24.8244 131.536 25.3977 130.883C25.9709 130.229 26.6768 129.705 27.4682 129.347C28.2596 128.988 29.1183 128.802 29.987 128.802H120.713C122.196 128.802 123.629 129.343 124.743 130.323C125.857 131.303 126.578 132.656 126.769 134.129L132.77 180.276C132.882 181.138 132.81 182.015 132.556 182.847C132.303 183.679 131.876 184.448 131.303 185.101C130.729 185.755 130.024 186.279 129.232 186.637C128.441 186.996 127.582 187.182 126.713 187.182Z" fill="white"/>
<path d="M126.713 187.647H35.9895C34.3943 187.643 32.8546 187.06 31.6561 186.006C30.4575 184.952 29.6816 183.499 29.4721 181.915L23.471 135.768C23.3503 134.84 23.4288 133.897 23.7011 133.001C23.9734 132.106 24.4334 131.279 25.0503 130.575C25.6671 129.872 26.4267 129.309 27.2783 128.922C28.1299 128.536 29.054 128.337 29.9888 128.337H120.712C122.307 128.34 123.847 128.923 125.046 129.977C126.244 131.031 127.02 132.485 127.23 134.069L133.231 180.216C133.352 181.144 133.273 182.087 133.001 182.983C132.729 183.878 132.269 184.705 131.652 185.408C131.035 186.112 130.275 186.675 129.424 187.061C128.572 187.447 127.648 187.647 126.713 187.647ZM29.9888 129.267C29.1864 129.268 28.3932 129.439 27.6622 129.771C26.9313 130.103 26.2794 130.586 25.75 131.19C25.2205 131.794 24.8258 132.504 24.5921 133.273C24.3585 134.042 24.2912 134.851 24.3948 135.648L30.3935 181.795C30.5735 183.155 31.2398 184.403 32.2689 185.308C33.2979 186.213 34.6199 186.713 35.9895 186.716H126.713C127.516 186.716 128.309 186.545 129.04 186.213C129.772 185.882 130.424 185.398 130.953 184.794C131.483 184.19 131.878 183.48 132.112 182.712C132.346 181.943 132.413 181.133 132.309 180.336L126.308 134.189C126.128 132.829 125.462 131.581 124.433 130.676C123.404 129.771 122.082 129.271 120.712 129.268L29.9888 129.267Z" fill="#292A2E"/>
<path d="M197.236 197.718L196.311 197.812L215.9 391.999L216.825 391.906L197.236 197.718Z" fill="#494949"/>
<path d="M116.936 57.9577C116.936 57.9577 122.965 53.4012 124.459 42.9126C125.615 34.792 118.134 40.053 118.134 40.053C118.134 40.053 118.91 34.1973 114.649 34.7785C110.388 35.3596 108.005 41.5107 108.005 41.5107" fill="#0C0C0C"/>
<path d="M92.6294 35.4638C92.6294 35.4638 71.4896 37.7349 79.1319 66.4171L81.0026 66.5427L84.7998 66.7977" fill="#0C0C0C"/>
<path d="M113.396 96.3732C113.303 96.3612 112.271 113.496 92.3901 112.004C78.6268 110.971 73.7196 96.3491 73.4041 96.3491C74.8882 96.0336 76.7217 95.5539 77.4508 95.3896C79.0391 95.0204 80.4775 94.1757 81.5747 92.9679C82.6718 91.76 83.3757 90.2463 83.5927 88.6281C83.9956 86.1993 83.3139 73.7723 83.5225 71.3147L104.649 76.0364C104.354 81.2272 102.288 93.26 109.528 95.3896C110.735 95.7418 112.033 96.0657 113.396 96.3732Z" fill="#E98862"/>
<path opacity="0.52" d="M104.946 90.472C104.615 89.404 104.402 88.303 104.311 87.1885C104.079 84.6454 104.126 82.0846 104.45 79.5517C100.156 78.9715 96.1106 77.1968 92.7735 74.4294C92.3814 75.8802 90.2239 82.2192 90.822 83.5979C91.9488 86.2044 97.2538 90.472 104.946 90.472Z" fill="#0C0C0C"/>
<path d="M100.586 87.0805C92.2508 86.3319 82.2749 81.0588 82.1314 69.7295L82.0012 59.5071C81.8577 48.1782 87.6831 38.9185 98.336 38.7827C108.988 38.6473 117.067 47.7297 117.211 59.059L117.269 63.5844C117.261 65.1386 117.148 66.6905 116.93 68.2294C116.383 72.3006 115.536 78.4904 112.777 82.6775C110.171 86.6306 105.91 87.5584 100.586 87.0805Z" fill="#E98862"/>
<path d="M104.453 76.726C106.173 76.8041 107.887 76.4762 109.457 75.7689C109.49 75.7551 109.519 75.7349 109.544 75.7097C109.568 75.6844 109.588 75.6545 109.601 75.6217C109.614 75.5889 109.621 75.5539 109.62 75.5185C109.62 75.4832 109.613 75.4483 109.599 75.4158C109.585 75.3833 109.565 75.3538 109.54 75.3291C109.514 75.3044 109.485 75.2849 109.452 75.2717C109.419 75.2585 109.384 75.2519 109.349 75.2523C109.314 75.2527 109.279 75.26 109.246 75.2739C105.863 76.7186 102.792 76.5069 100.363 74.662C100.314 74.6231 100.263 74.5869 100.21 74.5536C100.149 74.5253 100.08 74.5209 100.016 74.5413C99.9517 74.5617 99.8976 74.6053 99.8641 74.6637C99.8305 74.7221 99.8201 74.791 99.8347 74.8567C99.8494 74.9225 99.8881 74.9803 99.9432 75.0189C99.9627 75.031 99.9939 75.0556 100.036 75.0896C101.313 76.0631 102.851 76.6329 104.453 76.726Z" fill="#0C0C0C"/>
<path d="M104.372 79.2772C104.683 79.2963 104.995 79.2889 105.304 79.2548C105.375 79.2473 105.44 79.2119 105.485 79.1564C105.53 79.1009 105.551 79.0299 105.543 78.9589C105.536 78.888 105.5 78.8229 105.445 78.778C105.39 78.7332 105.319 78.7122 105.248 78.7197C103.386 78.918 102.497 78.0637 102.46 78.0269C102.409 77.9764 102.341 77.948 102.27 77.9479C102.199 77.9478 102.13 77.9761 102.08 78.0265C102.029 78.0769 102.001 78.1453 102.001 78.2167C102.001 78.288 102.029 78.3565 102.079 78.4071C102.72 78.9537 103.531 79.2611 104.372 79.2772Z" fill="#0C0C0C"/>
<path d="M113.693 65.7629C114.418 65.7629 115.005 65.1746 115.005 64.4489C115.005 63.7232 114.418 63.1349 113.693 63.1349C112.968 63.1349 112.381 63.7232 112.381 64.4489C112.381 65.1746 112.968 65.7629 113.693 65.7629Z" fill="#0C0C0C"/>
<path d="M100.874 64.9575C101.599 64.9575 102.186 64.3692 102.186 63.6435C102.186 62.9178 101.599 62.3295 100.874 62.3295C100.149 62.3295 99.5618 62.9178 99.5618 63.6435C99.5618 64.3692 100.149 64.9575 100.874 64.9575Z" fill="#0C0C0C"/>
<path d="M82.8367 73.1726C79.5994 73.214 76.9313 69.7792 76.8891 66.5376C76.8468 63.2959 79.4493 61.4748 82.6866 61.4338L84.3822 63.5844L85.6191 73.1372L82.8367 73.1726Z" fill="#E98862"/>
<path d="M86.0554 67.9637C86.0554 67.9637 87.1488 51.9331 92.0031 50.943C95.2362 50.2837 103.076 54.8761 110.338 53.489C113.516 52.8842 116.532 53.6696 116.838 55.1725C116.96 55.7676 118.939 47.216 113.964 40.7281C110.003 35.561 97.0396 34.1024 91.1421 35.796C74.8125 40.487 82.0184 62.1392 82.0184 62.1392L82.7466 67.6659L86.0554 67.9637Z" fill="#0C0C0C"/>
<path d="M106.408 72.9418H106.429C107.472 72.9311 109.22 72.7971 109.213 72.0154C109.206 71.3678 107.366 64.3964 107.156 63.6035C107.136 63.5377 107.091 63.4822 107.031 63.4487C106.971 63.4153 106.9 63.4065 106.833 63.4241C106.767 63.4418 106.71 63.4845 106.674 63.5434C106.639 63.6022 106.627 63.6727 106.642 63.7398C107.46 66.8275 108.677 71.5809 108.682 72.0219C108.581 72.2081 107.504 72.3998 106.423 72.4109C106.355 72.4124 106.29 72.44 106.242 72.488C106.194 72.5361 106.165 72.6009 106.163 72.6691C106.161 72.7373 106.186 72.8037 106.231 72.8545C106.277 72.9054 106.34 72.9368 106.408 72.9423V72.9418Z" fill="#0C0C0C"/>
<path d="M109.969 57.3235C111.065 57.0213 112.223 57.0213 113.319 57.3235C113.858 57.4684 114.371 57.6937 114.843 57.9917C115.309 58.2834 115.737 58.6329 116.116 59.032C116.188 59.1025 116.231 59.1985 116.233 59.2997C116.236 59.4009 116.199 59.4991 116.13 59.5733C116.062 59.6475 115.967 59.6918 115.866 59.6967C115.765 59.7017 115.666 59.6668 115.59 59.5997L115.567 59.5792C115.216 59.2541 114.825 58.9745 114.405 58.7468C113.992 58.5205 113.548 58.358 113.087 58.2648C112.179 58.0741 111.237 58.1269 110.356 58.4179L110.319 58.4309C110.173 58.4823 110.013 58.4739 109.874 58.4073C109.735 58.3408 109.628 58.2217 109.577 58.0761C109.525 57.9306 109.534 57.7705 109.6 57.6312C109.667 57.4919 109.786 57.3847 109.931 57.3333L109.969 57.3235Z" fill="#0C0C0C"/>
<path d="M102.205 57.9838C101.371 57.5778 100.445 57.3998 99.5195 57.4678C99.05 57.4983 98.5879 57.6 98.1488 57.7693C97.7024 57.939 97.2791 58.1641 96.8886 58.4393L96.8635 58.456C96.7797 58.5098 96.6784 58.5292 96.5807 58.5102C96.483 58.4911 96.3963 58.4351 96.3388 58.3538C96.2813 58.2724 96.2572 58.172 96.2717 58.0734C96.2862 57.9747 96.338 57.8855 96.4165 57.8242C96.8451 57.4791 97.3155 57.1895 97.8166 56.9624C98.3238 56.7305 98.8629 56.5758 99.4159 56.5037C100.543 56.3498 101.69 56.5038 102.737 56.9494C102.879 57.0111 102.99 57.1267 103.047 57.2706C103.103 57.4146 103.101 57.5752 103.039 57.7171C102.977 57.8591 102.862 57.9706 102.718 58.0274C102.574 58.0841 102.414 58.0813 102.272 58.0196L102.24 58.0042L102.205 57.9838Z" fill="#0C0C0C"/>
<path d="M108.408 46.2888C110.805 45.7875 112.15 42.5181 111.413 38.9865C110.676 35.4549 108.136 32.9983 105.74 33.4996C103.344 34.001 101.999 37.2703 102.735 40.8019C103.472 44.3335 106.012 46.7901 108.408 46.2888Z" fill="#0C0C0C"/>
<path d="M242.052 367.456C242.052 367.456 244.544 380.388 256.635 381.109C268.727 381.829 266.105 391.475 266.105 391.475H219.897V368.358L242.052 367.456Z" fill="#367CFF"/>
<path d="M154.144 359.291C154.144 359.291 150.679 371.996 161.211 377.987C171.744 383.978 165.139 391.475 165.139 391.475L123.676 371.049L133.866 350.306L154.144 359.291Z" fill="#367CFF"/>
<path d="M128.463 355.702L163.429 245.248H100.049C87.317 245.248 82.0096 234.437 82.0096 221.689C82.0096 208.941 94.5258 197.766 107.257 197.766H192.796C200.561 197.766 209.268 202.521 213.53 209.021C217.792 215.521 216.639 225.593 213.552 232.728L157.56 368.902" fill="#262626"/>
<path opacity="0.8" d="M128.463 355.702L163.429 245.248H100.049C87.317 245.248 82.0096 234.437 82.0096 221.689C82.0096 208.941 94.5258 197.766 107.257 197.766H192.796C200.561 197.766 209.268 202.521 213.53 209.021C217.792 215.521 216.639 225.593 213.552 232.728L157.56 368.902" fill="#0A0A0A"/>
<path d="M217.24 379.466L158.775 245.248L82.0087 245.243C64.0212 243.83 55.7832 233.959 56.0452 221.214C56.3036 208.63 62.6667 196.201 75.1768 196.201H178.644C187.9 196.392 195.182 206.634 198.616 215.243L247.22 371.249" fill="#262626"/>
<path d="M50.8094 196.355C50.8094 196.355 47.4002 218.617 52.8042 230.995C59.5506 246.447 84.8412 245.243 84.8412 245.243L83.4161 196.201L50.8094 196.355Z" fill="#262626"/>
<path d="M200.816 195.917L146.59 184.666C144.33 184.197 142.225 183.165 140.47 181.665C138.714 180.166 137.364 178.247 136.546 176.087L115.218 119.809C114.568 118.12 114.258 116.319 114.306 114.51C114.354 112.701 114.758 110.919 115.495 109.266C116.233 107.614 117.289 106.124 118.603 104.881C119.918 103.639 121.464 102.669 123.154 102.027C124.844 101.384 126.644 101.083 128.45 101.139C130.257 101.196 132.034 101.609 133.681 102.356C135.328 103.102 136.811 104.167 138.045 105.489C139.279 106.811 140.241 108.364 140.874 110.059L159.531 159.287L206.385 169.008C206.385 169.008 201.756 196.112 200.816 195.917Z" fill="#367CFF"/>
<path d="M138.098 134.1C137.472 141.467 133.033 187.427 132.429 196.501H50.8452C50.3763 188.317 48.8546 153.571 47.0768 137.567C45.3803 122.295 44.7646 113.581 46.719 108.835C50.1658 100.465 58.7914 97.4527 66.2213 96.4454C70.7578 95.8307 77.5814 95.3896 77.5814 95.3896C77.5814 95.3896 78.1594 107.093 91.9357 107.744C110.689 108.628 109.437 95.3896 109.53 95.3896C112.568 95.3896 129.105 97.6021 133.24 100.301C139.081 104.113 140.807 109.307 140.875 114.08C140.953 119.575 138.808 125.746 138.098 134.1Z" fill="#367CFF"/>
<path d="M134.891 171.655H134.872C134.841 171.652 134.812 171.644 134.785 171.63C134.758 171.616 134.733 171.596 134.714 171.573C134.694 171.55 134.679 171.523 134.67 171.494C134.66 171.464 134.657 171.434 134.66 171.403L136.777 145.927C136.779 145.896 136.787 145.866 136.801 145.839C136.814 145.811 136.834 145.787 136.857 145.767C136.88 145.747 136.908 145.732 136.937 145.723C136.966 145.714 136.997 145.711 137.028 145.714C137.058 145.717 137.088 145.725 137.115 145.739C137.142 145.753 137.166 145.773 137.186 145.796C137.206 145.819 137.221 145.846 137.23 145.875C137.239 145.904 137.243 145.935 137.24 145.966L135.122 171.442C135.117 171.5 135.091 171.554 135.048 171.593C135.005 171.633 134.949 171.654 134.891 171.655Z" fill="#0C0C0C"/>
<path d="M173.746 186.945L191.647 131.844C191.961 130.875 192.574 130.032 193.396 129.433C194.219 128.835 195.21 128.513 196.227 128.513H273.803C274.563 128.513 275.313 128.693 275.99 129.038C276.667 129.384 277.253 129.885 277.7 130.501C278.147 131.117 278.442 131.83 278.56 132.582C278.679 133.334 278.618 134.104 278.383 134.827L255.836 189.931C255.521 190.899 254.909 191.743 254.086 192.341C253.263 192.939 252.273 193.262 251.256 193.262H178.326C177.566 193.262 176.816 193.082 176.138 192.736C175.461 192.39 174.875 191.889 174.428 191.272C173.981 190.656 173.686 189.943 173.568 189.191C173.449 188.438 173.51 187.669 173.746 186.945Z" fill="#292A2E"/>
<path d="M173.746 186.945L191.647 131.844C191.961 130.875 192.574 130.032 193.396 129.433C194.219 128.835 195.21 128.513 196.227 128.513H273.803C274.563 128.513 275.313 128.693 275.99 129.038C276.667 129.384 277.253 129.885 277.7 130.501C278.147 131.117 278.442 131.83 278.56 132.582C278.679 133.334 278.618 134.104 278.383 134.827L255.836 189.931C255.521 190.899 254.909 191.743 254.086 192.341C253.263 192.939 252.273 193.262 251.256 193.262H178.326C177.566 193.262 176.816 193.082 176.138 192.736C175.461 192.39 174.875 191.889 174.428 191.272C173.981 190.656 173.686 189.943 173.568 189.191C173.449 188.438 173.51 187.669 173.746 186.945Z" fill="#292A2E"/>
<path d="M188.348 188.792H139.529C138.313 188.792 137.327 189.779 137.327 190.997V191.054C137.327 192.272 138.313 193.259 139.529 193.259H188.348C189.565 193.259 190.551 192.272 190.551 191.054V190.997C190.551 189.779 189.565 188.792 188.348 188.792Z" fill="#292A2E"/>
<path d="M188.348 188.792H139.529C138.313 188.792 137.327 189.779 137.327 190.997V191.054C137.327 192.272 138.313 193.259 139.529 193.259H188.348C189.565 193.259 190.551 192.272 190.551 191.054V190.997C190.551 189.779 189.565 188.792 188.348 188.792Z" fill="#292A2E"/>
<path d="M223.741 171.233C227.966 171.233 231.39 167.804 231.39 163.574C231.39 159.344 227.966 155.915 223.741 155.915C219.517 155.915 216.092 159.344 216.092 163.574C216.092 167.804 219.517 171.233 223.741 171.233Z" fill="white"/>
<path d="M169.665 174.037L157.481 169.761L159.23 169.64C159.794 169.59 160.318 169.327 160.696 168.905C161.074 168.482 161.277 167.932 161.266 167.365C161.249 167.073 161.174 166.787 161.044 166.525C160.914 166.263 160.731 166.03 160.508 165.841C160.286 165.652 160.026 165.51 159.747 165.424C159.467 165.339 159.173 165.311 158.883 165.343L137.327 167.637L137.884 174.573C138.058 176.728 138.871 178.781 140.218 180.47C141.565 182.159 143.385 183.407 145.444 184.053L154.779 186.965C155.261 187.126 155.784 187.115 156.259 186.934C156.734 186.753 157.132 186.413 157.386 185.972C157.606 185.569 157.692 185.106 157.631 184.651C157.57 184.196 157.366 183.772 157.047 183.441C157.068 183.426 157.085 183.407 157.099 183.386C157.112 183.364 157.12 183.34 157.124 183.315C157.127 183.29 157.126 183.264 157.119 183.24C157.112 183.215 157.101 183.193 157.085 183.173L158.804 183.713C159.341 183.893 159.926 183.863 160.441 183.628C160.956 183.393 161.363 182.971 161.579 182.447C161.756 181.972 161.76 181.45 161.59 180.972C161.42 180.495 161.087 180.093 160.65 179.837C160.67 179.826 160.688 179.811 160.703 179.794L161.41 180.016C161.892 180.177 162.415 180.166 162.89 179.985C163.365 179.804 163.763 179.464 164.016 179.023C164.284 178.534 164.352 177.961 164.206 177.423C164.061 176.885 163.713 176.425 163.236 176.138C163.24 176.124 163.242 176.109 163.242 176.094L168.316 177.875C168.569 177.966 168.836 178.007 169.104 177.994C169.372 177.981 169.635 177.915 169.877 177.8C170.12 177.685 170.337 177.522 170.516 177.323C170.696 177.123 170.834 176.89 170.922 176.636C171.011 176.382 171.049 176.114 171.033 175.846C171.018 175.578 170.949 175.315 170.832 175.074C170.714 174.832 170.55 174.616 170.349 174.439C170.147 174.261 169.913 174.125 169.659 174.039L169.665 174.037Z" fill="#E98862"/>
<path opacity="0.2" d="M163.05 176.291C163.026 176.291 163.003 176.287 162.981 176.279L158.073 174.492C158.023 174.473 157.982 174.436 157.959 174.387C157.936 174.338 157.934 174.282 157.953 174.232C157.971 174.181 158.009 174.14 158.058 174.118C158.106 174.095 158.162 174.093 158.212 174.111L163.121 175.898C163.165 175.915 163.203 175.946 163.227 175.987C163.25 176.029 163.259 176.077 163.251 176.124C163.242 176.171 163.218 176.213 163.181 176.244C163.145 176.275 163.099 176.291 163.051 176.291H163.05Z" fill="#0A0A0A"/>
<path opacity="0.2" d="M160.568 179.864C160.545 179.864 160.522 179.86 160.5 179.852L156.632 178.478C156.606 178.47 156.583 178.456 156.562 178.438C156.542 178.421 156.525 178.399 156.514 178.375C156.502 178.351 156.495 178.324 156.493 178.297C156.492 178.271 156.495 178.244 156.504 178.218C156.513 178.193 156.527 178.169 156.545 178.149C156.564 178.129 156.585 178.113 156.61 178.102C156.634 178.091 156.661 178.084 156.688 178.083C156.715 178.082 156.742 178.087 156.767 178.096L160.635 179.471C160.68 179.487 160.718 179.518 160.742 179.559C160.766 179.6 160.775 179.649 160.767 179.696C160.759 179.743 160.735 179.786 160.698 179.816C160.662 179.847 160.616 179.864 160.568 179.864Z" fill="#0A0A0A"/>
<path opacity="0.2" d="M156.925 183.49C156.901 183.49 156.876 183.485 156.853 183.477L155.041 182.785C154.991 182.765 154.95 182.727 154.929 182.678C154.907 182.629 154.905 182.573 154.924 182.523C154.944 182.473 154.982 182.433 155.031 182.411C155.08 182.389 155.135 182.387 155.186 182.406L156.998 183.098C157.042 183.115 157.079 183.147 157.102 183.188C157.126 183.229 157.134 183.278 157.125 183.324C157.117 183.371 157.092 183.413 157.055 183.443C157.019 183.474 156.973 183.49 156.926 183.49H156.925Z" fill="#0A0A0A"/>
<path d="M146.868 163.532L95.7547 163.497L76.4183 116.265L47.573 128.409L71.6973 184.466L71.9329 185.025C73.1132 187.749 75.1013 190.045 77.628 191.601C80.1547 193.156 83.0978 193.896 86.0586 193.721L147.639 190.079L146.868 163.532Z" fill="#367CFF"/>
<path d="M85.2126 193.979C82.3471 193.974 79.5452 193.133 77.1492 191.559C74.7533 189.985 72.867 187.747 71.7211 185.117L71.485 184.558L50.927 136.795L51.3536 136.609L72.1472 184.934C73.314 187.61 75.2713 189.865 77.756 191.395C80.2406 192.924 83.1334 193.655 86.0452 193.489L147.401 189.86L146.64 163.765L95.5982 163.731L80.729 127.414L81.1593 127.238L95.9091 163.265L147.092 163.3L147.878 190.298L147.653 190.311L86.074 193.953C85.7864 193.97 85.4979 193.979 85.2126 193.979Z" fill="#0C0C0C"/>
<path d="M28.3609 197.721L8.75842 391.907L9.68304 392.001L29.2855 197.815L28.3609 197.721Z" fill="#494949"/>
<path d="M109.351 197.721L89.7482 391.907L90.6728 392.001L110.275 197.814L109.351 197.721Z" fill="#494949"/>
<path d="M278.225 197.718L277.301 197.812L296.889 391.999L297.814 391.906L278.225 197.718Z" fill="#494949"/>
<path d="M295.889 193.953H11.9794C9.87665 193.953 8.172 195.66 8.172 197.765C8.172 199.871 9.87665 201.578 11.9794 201.578H295.889C297.992 201.578 299.697 199.871 299.697 197.765C299.697 195.66 297.992 193.953 295.889 193.953Z" fill="#292A2E"/>
<path opacity="0.8" d="M295.889 193.953H11.9794C9.87665 193.953 8.172 195.66 8.172 197.765C8.172 199.871 9.87665 201.578 11.9794 201.578H295.889C297.992 201.578 299.697 199.871 299.697 197.765C299.697 195.66 297.992 193.953 295.889 193.953Z" fill="white"/>
<path d="M295.89 202.043H11.9813C11.4166 202.049 10.8563 201.943 10.3328 201.73C9.80938 201.518 9.33317 201.204 8.93174 200.806C8.53031 200.408 8.21163 199.935 7.99414 199.413C7.77666 198.891 7.66467 198.331 7.66467 197.765C7.66467 197.2 7.77666 196.64 7.99414 196.118C8.21163 195.596 8.53031 195.123 8.93174 194.725C9.33317 194.327 9.80938 194.013 10.3328 193.8C10.8563 193.588 11.4166 193.482 11.9813 193.488H295.89C296.455 193.482 297.015 193.588 297.538 193.8C298.062 194.013 298.538 194.327 298.939 194.725C299.341 195.123 299.66 195.596 299.877 196.118C300.094 196.64 300.206 197.2 300.206 197.765C300.206 198.331 300.094 198.891 299.877 199.413C299.66 199.935 299.341 200.408 298.939 200.806C298.538 201.204 298.062 201.518 297.538 201.73C297.015 201.943 296.455 202.049 295.89 202.043ZM11.9813 194.418C11.5391 194.413 11.1002 194.496 10.6901 194.662C10.2799 194.828 9.90678 195.073 9.59219 195.385C9.2776 195.696 9.02784 196.067 8.85738 196.475C8.68691 196.884 8.59914 197.322 8.59914 197.765C8.59914 198.208 8.68691 198.647 8.85738 199.055C9.02784 199.464 9.2776 199.835 9.59219 200.146C9.90678 200.457 10.2799 200.703 10.6901 200.869C11.1002 201.035 11.5391 201.118 11.9813 201.112H295.89C296.332 201.118 296.771 201.035 297.181 200.869C297.591 200.703 297.964 200.457 298.279 200.146C298.594 199.835 298.843 199.464 299.014 199.055C299.184 198.647 299.272 198.208 299.272 197.765C299.272 197.322 299.184 196.884 299.014 196.475C298.843 196.067 298.594 195.696 298.279 195.385C297.964 195.073 297.591 194.828 297.181 194.662C296.771 194.496 296.332 194.413 295.89 194.418H11.9813Z" fill="#292A2E"/>
<path d="M295.889 193.953H96.0653C93.9625 193.953 92.2578 195.66 92.2578 197.765C92.2578 199.871 93.9625 201.578 96.0653 201.578H295.889C297.992 201.578 299.697 199.871 299.697 197.765C299.697 195.66 297.992 193.953 295.889 193.953Z" fill="white"/>
<path d="M295.89 202.043H96.0652C94.9399 202.031 93.8648 201.575 93.0732 200.774C92.2816 199.973 91.8376 198.892 91.8376 197.765C91.8376 196.639 92.2816 195.557 93.0732 194.756C93.8648 193.955 94.9399 193.499 96.0652 193.488H295.89C296.455 193.482 297.015 193.588 297.538 193.8C298.062 194.013 298.538 194.327 298.939 194.725C299.341 195.123 299.66 195.596 299.877 196.118C300.095 196.64 300.207 197.2 300.207 197.765C300.207 198.331 300.095 198.891 299.877 199.413C299.66 199.935 299.341 200.408 298.939 200.806C298.538 201.204 298.062 201.518 297.538 201.73C297.015 201.943 296.455 202.049 295.89 202.043ZM96.0652 194.418C95.1855 194.429 94.3454 194.786 93.727 195.412C93.1086 196.039 92.7618 196.884 92.7618 197.765C92.7618 198.646 93.1086 199.492 93.727 200.118C94.3454 200.745 95.1855 201.102 96.0652 201.112H295.89C296.332 201.118 296.771 201.035 297.181 200.869C297.591 200.703 297.964 200.457 298.279 200.146C298.594 199.835 298.843 199.464 299.014 199.055C299.184 198.647 299.272 198.208 299.272 197.765C299.272 197.322 299.184 196.884 299.014 196.475C298.843 196.067 298.594 195.696 298.279 195.385C297.964 195.073 297.591 194.828 297.181 194.662C296.771 194.496 296.332 194.413 295.89 194.418H96.0652Z" fill="#292A2E"/>
<path d="M303.547 330.094C303.486 330.094 303.426 330.082 303.369 330.059C303.313 330.035 303.262 330.001 303.219 329.958C302.564 329.302 301.497 317.275 298.622 281.464C297.446 266.811 296.335 252.971 295.525 244.56C295.467 243.959 295.234 243.889 295.158 243.866C294.048 243.531 290.673 246.195 288.789 248.529C288.711 248.625 288.599 248.687 288.476 248.7C288.354 248.713 288.231 248.676 288.135 248.599C288.039 248.521 287.978 248.409 287.965 248.286C287.952 248.163 287.988 248.04 288.066 247.944C289.312 246.401 293.373 242.356 295.425 242.975C295.839 243.099 296.354 243.46 296.45 244.47C297.261 252.889 298.372 266.733 299.549 281.389C301.296 303.151 303.274 327.805 303.925 329.357C303.975 329.427 304.004 329.509 304.011 329.594C304.017 329.679 304 329.765 303.961 329.841C303.922 329.917 303.862 329.981 303.79 330.026C303.717 330.07 303.633 330.094 303.547 330.094Z" fill="#494949"/>
<path d="M294.331 259.994C302.041 253.805 304.597 244.172 300.039 238.478C295.481 232.784 285.535 233.185 277.825 239.374C270.114 245.563 267.559 255.196 272.117 260.89C276.675 266.584 286.62 266.183 294.331 259.994Z" fill="#0CBC8B"/>
<path opacity="0.2" d="M294.331 259.994C302.041 253.805 304.597 244.172 300.039 238.478C295.481 232.784 285.535 233.185 277.825 239.374C270.114 245.563 267.559 255.196 272.117 260.89C276.675 266.584 286.62 266.183 294.331 259.994Z" fill="white"/>
<path d="M274.278 262.338C274.234 262.338 274.191 262.326 274.154 262.302C274.117 262.278 274.087 262.245 274.068 262.205C274.049 262.165 274.042 262.12 274.048 262.076C274.053 262.032 274.071 261.991 274.099 261.957L296.074 235.422C296.113 235.375 296.17 235.345 296.231 235.339C296.293 235.333 296.354 235.352 296.401 235.392C296.449 235.431 296.478 235.488 296.484 235.549C296.49 235.611 296.471 235.672 296.432 235.72L274.457 262.254C274.435 262.281 274.408 262.302 274.377 262.316C274.346 262.331 274.312 262.338 274.278 262.338Z" fill="white"/>
<path d="M308.34 324.406C308.266 324.406 308.193 324.388 308.127 324.354C308.061 324.32 308.004 324.27 307.961 324.21C307.918 324.149 307.891 324.079 307.88 324.006C307.87 323.932 307.877 323.857 307.901 323.787L316.156 300.018C316.399 299.319 316.813 298.693 317.361 298.197C317.908 297.7 318.571 297.349 319.289 297.175C320.007 297.002 320.757 297.012 321.47 297.203C322.183 297.395 322.837 297.763 323.371 298.274L327.735 302.448C327.825 302.533 327.876 302.65 327.879 302.774C327.882 302.897 327.836 303.017 327.751 303.106C327.665 303.195 327.548 303.247 327.425 303.25C327.302 303.253 327.182 303.206 327.093 303.121L322.73 298.947C322.308 298.544 321.792 298.253 321.228 298.102C320.665 297.95 320.073 297.942 319.507 298.079C318.94 298.216 318.416 298.494 317.984 298.886C317.552 299.278 317.225 299.772 317.033 300.323L308.78 324.094C308.748 324.185 308.688 324.264 308.61 324.32C308.531 324.376 308.437 324.406 308.34 324.406Z" fill="#494949"/>
<path d="M339.927 315.608C345.641 311.079 345.301 301.118 339.168 293.359C333.035 285.6 323.431 282.982 317.717 287.511C312.002 292.04 312.342 302.002 318.475 309.76C324.608 317.519 334.212 320.137 339.927 315.608Z" fill="#0CBC8B"/>
<path d="M299.8 328.578C299.696 328.578 299.594 328.543 299.512 328.478C299.43 328.413 299.373 328.323 299.348 328.221L285.494 270.225C285.399 269.83 285.197 269.469 284.911 269.181C284.624 268.893 284.264 268.69 283.87 268.594C283.475 268.497 283.062 268.512 282.676 268.636C282.289 268.759 281.944 268.987 281.678 269.295L277.408 274.236C277.368 274.283 277.32 274.321 277.265 274.349C277.21 274.377 277.15 274.394 277.089 274.399C277.028 274.404 276.966 274.396 276.908 274.377C276.85 274.358 276.796 274.327 276.75 274.287C276.703 274.246 276.665 274.197 276.638 274.142C276.61 274.087 276.594 274.027 276.59 273.966C276.586 273.905 276.594 273.843 276.614 273.785C276.634 273.727 276.665 273.673 276.705 273.627L280.975 268.686C281.353 268.249 281.843 267.925 282.393 267.749C282.943 267.573 283.53 267.553 284.091 267.69C284.651 267.827 285.163 268.116 285.571 268.526C285.978 268.935 286.264 269.449 286.398 270.011L300.25 328.007C300.278 328.126 300.257 328.252 300.193 328.357C300.128 328.461 300.025 328.536 299.906 328.565C299.871 328.573 299.836 328.578 299.8 328.578Z" fill="#494949"/>
<path d="M294.689 287.12C296.372 277.369 291.916 268.457 284.735 267.214C277.554 265.97 270.367 272.866 268.684 282.617C267 292.367 271.456 301.28 278.637 302.523C285.818 303.767 293.005 296.87 294.689 287.12Z" fill="#0CBC8B"/>
<path d="M303.548 330.094C303.529 330.094 303.51 330.093 303.491 330.091C303.43 330.083 303.372 330.064 303.318 330.034C303.265 330.004 303.219 329.963 303.181 329.915C303.143 329.867 303.116 329.812 303.099 329.753C303.083 329.694 303.079 329.633 303.086 329.572L311.931 257.658C312.028 256.875 312.348 256.136 312.854 255.531C313.359 254.925 314.029 254.479 314.782 254.245C315.535 254.012 316.339 254.001 317.098 254.214C317.857 254.427 318.538 254.855 319.06 255.447L329.17 266.913C329.252 267.005 329.293 267.127 329.286 267.25C329.278 267.373 329.222 267.488 329.129 267.57C329.037 267.652 328.916 267.693 328.793 267.685C328.67 267.678 328.555 267.621 328.473 267.529L318.363 256.063C317.96 255.606 317.433 255.275 316.847 255.11C316.26 254.945 315.639 254.953 315.057 255.134C314.475 255.314 313.957 255.659 313.566 256.127C313.176 256.595 312.928 257.166 312.854 257.772L304.009 329.685C303.995 329.798 303.941 329.902 303.856 329.977C303.771 330.052 303.661 330.094 303.548 330.094Z" fill="#494949"/>
<path d="M339.54 273.285C343.067 266.899 338.917 257.84 330.27 253.05C321.623 248.261 311.753 249.555 308.226 255.94C304.698 262.326 308.849 271.385 317.496 276.175C326.143 280.965 336.012 279.671 339.54 273.285Z" fill="#0CBC8B"/>
<path opacity="0.2" d="M339.927 315.608C345.641 311.079 345.301 301.118 339.168 293.359C333.035 285.6 323.431 282.982 317.717 287.511C312.002 292.04 312.342 302.002 318.475 309.76C324.608 317.519 334.212 320.137 339.927 315.608Z" fill="white"/>
<path opacity="0.5" d="M294.689 287.12C296.372 277.369 291.916 268.457 284.735 267.214C277.554 265.97 270.367 272.866 268.684 282.617C267 292.367 271.456 301.28 278.637 302.523C285.818 303.767 293.005 296.87 294.689 287.12Z" fill="white"/>
<path opacity="0.5" d="M339.54 273.285C343.067 266.899 338.917 257.84 330.27 253.05C321.623 248.261 311.753 249.555 308.226 255.94C304.698 262.326 308.849 271.385 317.496 276.175C326.143 280.965 336.012 279.671 339.54 273.285Z" fill="white"/>
<path d="M314.861 391.113H292.234L288.484 318.619H318.61L314.861 391.113Z" fill="#292A2E"/>
<path opacity="0.3" d="M314.861 391.113H292.234L288.484 318.619H318.61L314.861 391.113Z" fill="white"/>
<path d="M339.927 315.837C339.892 315.837 339.858 315.829 339.826 315.814C339.794 315.799 339.767 315.777 339.745 315.749L317.534 287.652C317.496 287.604 317.478 287.542 317.486 287.481C317.493 287.42 317.524 287.364 317.572 287.325C317.62 287.287 317.682 287.269 317.743 287.277C317.804 287.284 317.86 287.315 317.899 287.363L340.109 315.46C340.137 315.494 340.154 315.536 340.158 315.579C340.163 315.623 340.156 315.667 340.137 315.706C340.118 315.745 340.088 315.779 340.051 315.802C340.014 315.825 339.971 315.838 339.927 315.837Z" fill="white"/>
<path d="M338.063 275.536C338.013 275.536 337.965 275.519 337.925 275.49L309.504 254.709C309.454 254.672 309.421 254.618 309.411 254.557C309.402 254.496 309.417 254.434 309.453 254.384C309.49 254.334 309.544 254.3 309.605 254.291C309.666 254.281 309.728 254.297 309.778 254.333L338.2 275.114C338.239 275.143 338.267 275.184 338.282 275.231C338.297 275.277 338.296 275.327 338.281 275.374C338.265 275.42 338.236 275.46 338.196 275.489C338.157 275.517 338.109 275.533 338.06 275.533L338.063 275.536Z" fill="white"/>
<path d="M277.482 302.22C277.462 302.22 277.442 302.217 277.422 302.212C277.363 302.196 277.312 302.157 277.281 302.103C277.25 302.05 277.242 301.987 277.258 301.927L286.305 267.983C286.322 267.925 286.361 267.876 286.414 267.846C286.467 267.817 286.529 267.809 286.588 267.824C286.646 267.84 286.696 267.878 286.727 267.93C286.758 267.982 286.768 268.044 286.754 268.103L277.707 302.047C277.693 302.096 277.664 302.14 277.624 302.172C277.583 302.203 277.533 302.22 277.482 302.22Z" fill="white"/>
<path d="M325.785 391.766H0.325263C0.238998 391.766 0.156266 391.732 0.0952675 391.671C0.0342687 391.61 0 391.527 0 391.44C0 391.354 0.0342687 391.271 0.0952675 391.21C0.156266 391.149 0.238998 391.115 0.325263 391.115H325.784C325.87 391.115 325.953 391.149 326.014 391.21C326.075 391.271 326.109 391.354 326.109 391.44C326.109 391.527 326.075 391.61 326.014 391.671C325.953 391.732 325.87 391.766 325.784 391.766H325.785Z" fill="#292A2E"/>
<g opacity="0.65">
<path d="M325.785 391.766H0.325263C0.238998 391.766 0.156266 391.732 0.0952675 391.671C0.0342687 391.61 0 391.527 0 391.44C0 391.354 0.0342687 391.271 0.0952675 391.21C0.156266 391.149 0.238998 391.115 0.325263 391.115H325.784C325.87 391.115 325.953 391.149 326.014 391.21C326.075 391.271 326.109 391.354 326.109 391.44C326.109 391.527 326.075 391.61 326.014 391.671C325.953 391.732 325.87 391.766 325.784 391.766H325.785Z" fill="#292A2E"/>
</g>
</g>
<defs>
<clipPath id="clip0_10_18">
<rect width="344" height="392" fill="white"/>
</clipPath>
</defs>
</svg>
