<svg width="29" height="29" viewBox="0 0 29 29" fill="none" xmlns="http://www.w3.org/2000/svg">
<path d="M26.8401 6.83439C25.9177 7.24245 24.9394 7.51045 23.9378 7.62955C24.9931 6.99784 25.7827 6.00409 26.1596 4.83339C25.168 5.42253 24.0827 5.83718 22.9508 6.05932C21.9954 5.04003 20.6601 4.46241 19.263 4.46399C16.4727 4.46399 14.2096 6.72632 14.2096 9.51784C14.2096 9.91387 14.2551 10.2979 14.34 10.6685C10.1385 10.457 6.41634 8.44631 3.9232 5.38845C3.47431 6.15968 3.2384 7.03634 3.2396 7.92868C3.2396 9.68188 4.13202 11.2293 5.48764 12.1353C4.68516 12.1099 3.90036 11.8932 3.19868 11.503C3.19791 11.5242 3.19791 11.5455 3.19791 11.5655C3.19791 14.0147 4.9399 16.0578 7.25241 16.5217C6.81839 16.6391 6.37073 16.6984 5.92111 16.6981C5.59455 16.6981 5.27766 16.668 4.96963 16.6089C5.61309 18.6162 7.47821 20.0775 9.69036 20.1177C7.90025 21.5226 5.68967 22.2848 3.41407 22.2815C3.01132 22.2819 2.60891 22.2581 2.20898 22.2105C4.51922 23.6957 7.20834 24.4839 9.95476 24.481C19.2507 24.481 24.3334 16.7807 24.3334 10.103C24.3334 9.88453 24.3281 9.66529 24.3184 9.44913C25.3077 8.73438 26.1616 7.84893 26.8401 6.83439Z" fill="white"/>
</svg>
