<svg width="29" height="29" viewBox="0 0 29 29" fill="none" xmlns="http://www.w3.org/2000/svg">
<path d="M18.6112 25.375V16.9582H21.4294L21.8513 13.6862H18.6112V11.5972C18.6112 10.6498 18.8742 10.0042 20.2327 10.0042L21.9654 10.0034V7.07692C21.6657 7.03712 20.6372 6.94799 19.4406 6.94799C16.9424 6.94799 15.2323 8.47281 15.2323 11.2732V13.6862H12.4068V16.9582H15.2323V25.375H4.83333C4.166 25.375 3.625 24.834 3.625 24.1667V4.83333C3.625 4.166 4.166 3.625 4.83333 3.625H24.1667C24.834 3.625 25.375 4.166 25.375 4.83333V24.1667C25.375 24.834 24.834 25.375 24.1667 25.375H18.6112Z" fill="white"/>
</svg>
