<svg width="29" height="29" viewBox="0 0 29 29" fill="none" xmlns="http://www.w3.org/2000/svg">
<path d="M14.5012 10.875C12.4985 10.875 10.8762 12.4979 10.8762 14.5C10.8762 16.5026 12.4991 18.125 14.5012 18.125C16.5038 18.125 18.1262 16.5021 18.1262 14.5C18.1262 12.4974 16.5033 10.875 14.5012 10.875ZM14.5012 8.45835C17.8367 8.45835 20.5429 11.1615 20.5429 14.5C20.5429 17.8356 17.8397 20.5417 14.5012 20.5417C11.1656 20.5417 8.45951 17.8385 8.45951 14.5C8.45951 11.1645 11.1627 8.45835 14.5012 8.45835ZM22.3554 8.15524C22.3554 8.98913 21.6777 9.66568 20.845 9.66568C20.0111 9.66568 19.3345 8.98809 19.3345 8.15524C19.3345 7.3224 20.012 6.64585 20.845 6.64585C21.6766 6.6448 22.3554 7.3224 22.3554 8.15524ZM14.5012 4.83335C11.5112 4.83335 11.0238 4.84127 9.63315 4.90319C8.68568 4.94767 8.05055 5.0751 7.46044 5.3042C6.93602 5.50759 6.55773 5.75045 6.15467 6.15352C5.75006 6.55813 5.50763 6.93541 5.30506 7.46006C5.07543 8.05153 4.94804 8.68565 4.90436 9.63183C4.84182 10.9659 4.83451 11.4321 4.83451 14.5C4.83451 17.49 4.84243 17.9774 4.90434 19.3679C4.94885 20.315 5.07645 20.9511 5.30499 21.5398C5.50891 22.0649 5.75227 22.4441 6.15339 22.8453C6.55959 23.2509 6.93799 23.4941 7.45767 23.6947C8.05498 23.9256 8.6897 24.0532 9.63297 24.0968C10.967 24.1593 11.4333 24.1667 14.5012 24.1667C17.4912 24.1667 17.9785 24.1587 19.3691 24.0968C20.3141 24.0525 20.9507 23.9245 21.541 23.6962C22.0646 23.4928 22.445 23.2486 22.8464 22.8478C23.2527 22.4409 23.4954 22.0635 23.6963 21.5425C23.9266 20.9474 24.0544 20.3119 24.098 19.3683C24.1605 18.0342 24.1679 17.5679 24.1679 14.5C24.1679 11.51 24.1599 11.0227 24.098 9.63209C24.0536 8.6868 23.9256 8.04932 23.697 7.45928C23.4941 6.93631 23.2504 6.55686 22.8476 6.15352C22.4424 5.74824 22.0661 5.50631 21.5411 5.3039C20.9501 5.07446 20.315 4.94689 19.3693 4.90321C18.0353 4.84066 17.569 4.83335 14.5012 4.83335ZM14.5012 2.41669C17.7838 2.41669 18.1936 2.42877 19.4826 2.48919C20.7683 2.5486 21.6455 2.752 22.4158 3.05106C23.2122 3.35818 23.8849 3.77304 24.5565 4.44467C25.2271 5.11631 25.642 5.79096 25.9502 6.58544C26.2481 7.35475 26.4516 8.23279 26.512 9.51867C26.5694 10.8076 26.5845 11.2174 26.5845 14.5C26.5845 17.7827 26.5725 18.1924 26.512 19.4814C26.4526 20.7673 26.2481 21.6443 25.9502 22.4146C25.643 23.2111 25.2271 23.8837 24.5565 24.5554C23.8849 25.226 23.2092 25.6409 22.4158 25.949C21.6455 26.2471 20.7683 26.4504 19.4826 26.5109C18.1936 26.5682 17.7838 26.5834 14.5012 26.5834C11.2185 26.5834 10.8087 26.5713 9.51983 26.5109C8.23395 26.4514 7.35791 26.2471 6.5866 25.949C5.7911 25.6418 5.11746 25.226 4.44583 24.5554C3.7742 23.8837 3.36035 23.2081 3.05222 22.4146C2.75316 21.6443 2.55076 20.7673 2.49035 19.4814C2.43295 18.1924 2.41785 17.7827 2.41785 14.5C2.41785 11.2174 2.42993 10.8076 2.49035 9.51867C2.54975 8.23179 2.75316 7.35575 3.05222 6.58544C3.35933 5.78995 3.7742 5.11631 4.44583 4.44467C5.11746 3.77304 5.79212 3.35919 6.5866 3.05106C7.35691 2.752 8.23295 2.5496 9.51983 2.48919C10.8087 2.43179 11.2185 2.41669 14.5012 2.41669Z" fill="white"/>
</svg>
